# xmcd
#
# Track frame offsets:
#	150
#	15155
#	33771
#	49082
#	63618
#	80417
#	100887
#	117773
#	132171
#	148129
#	164492
#	184967
#	197725
#
# Disc length: 2838 seconds
# Revision: 0
# Processed by: cddbd v1.5.2PL0 Copyright (c) Steve Scherf et al.
# Submitted via: dBpowerAMP V12.0
#
DISCID=ae0b140d
DTITLE=Bobby Sweet - All These Changes
DYEAR=2017
DGENRE=Country
TTITLE0=All These Changes
TTITLE1=Beneath the Sky
TTITLE2=Take Me to the City
TTITLE3=Comin' and a Goin'
TTITLE4=Wild Blue Yonder
TTITLE5=Kinda Like the Blues
TTITLE6=No More Wagons
TTITLE7=More or Less
TTITLE8=Black and White
TTITLE9=Uncertainty
TTITLE10=Learning to Live
TTITLE11=I've Got a Secret
TTITLE12=Beautiful World
EXTD=
EXTT0=
EXTT1=
EXTT2=
EXTT3=
EXTT4=
EXTT5=
EXTT6=
EXTT7=
EXTT8=
EXTT9=
EXTT10=
EXTT11=
EXTT12=
PLAYORDER=
